<svg width="82" height="80" viewBox="0 0 82 80" fill="none" xmlns="http://www.w3.org/2000/svg">
<g clip-path="url(#clip0_4_13)">
<path d="M74.809 61.6546C70.3906 61.5444 66.9661 61.9863 64.094 63.2012C63.2655 63.5324 61.9398 63.5327 61.8293 64.5822C62.2712 65.0241 62.3264 65.7422 62.7131 66.3495C63.3766 67.4539 64.5356 68.9454 65.5852 69.719C66.7448 70.6025 67.9052 71.486 69.1198 72.2593C71.274 73.5851 73.7045 74.3581 75.8033 75.6838C77.0188 76.4565 78.2331 77.4514 79.4483 78.2797C80.056 78.7209 80.4423 79.4397 81.216 79.7155V79.5501C80.829 79.0527 80.7185 78.3349 80.3321 77.7825C79.7804 77.2301 79.2274 76.733 78.675 76.1806C77.0734 74.027 75.0852 72.1489 72.9312 70.6025C71.1639 69.3873 67.2972 67.7305 66.5794 65.6866C66.5794 65.6866 66.5239 65.6317 66.469 65.5765C67.6839 65.466 69.1198 65.0241 70.2801 64.6927C72.1579 64.1952 73.8699 64.306 75.8033 63.8089C76.6867 63.5879 77.5706 63.3117 78.454 63.0355V62.5387C77.4604 61.5444 76.7423 60.219 75.6928 59.28C72.876 56.8492 69.7826 54.4746 66.5794 52.4863C64.8671 51.3816 62.6575 50.6635 60.835 49.7247C60.1728 49.393 59.0677 49.2276 58.6813 48.6752C57.6867 47.4603 57.1344 45.8587 56.4166 44.4225C54.8153 41.3844 53.2683 38.0155 51.8874 34.8124C50.8937 32.6581 50.2861 30.5038 49.0709 28.5158C43.382 19.1263 37.1959 13.4374 27.6963 7.8587C25.6525 6.69902 23.2223 6.20188 20.6264 5.59458C19.2461 5.53902 17.8648 5.42886 16.4842 5.37331C15.6004 4.98664 14.7166 3.93744 13.9433 3.44029C10.7956 1.45172 2.67595 -2.8559 0.356268 2.83299C-1.13516 6.42283 2.56579 9.95744 3.83563 11.7806C4.77532 13.0508 5.98992 14.4866 6.65278 15.9228C7.03944 16.8612 7.1496 17.8562 7.53627 18.8501C8.42039 21.2797 9.24833 23.9866 10.4086 26.2514C11.0163 27.4111 11.6788 28.626 12.4521 29.6755C12.894 30.2828 13.6671 30.5593 13.8331 31.5533C13.0601 32.6581 13.0045 34.3152 12.5623 35.6959C10.574 41.9371 11.3477 49.6695 14.1642 54.2536C15.0477 55.6339 17.1467 58.6727 19.9636 57.5124C22.4493 56.5184 21.8969 53.3701 22.6144 50.6086C22.7807 49.9451 22.6702 49.5038 23.0013 49.0619V49.1727C23.7747 50.7187 24.5477 52.2105 25.2658 53.7568C26.9782 56.4628 29.9604 59.28 32.4458 61.1581C33.7718 62.1517 34.821 63.8641 36.4782 64.4717V64.3057H36.3674C36.0359 63.8086 35.5388 63.5879 35.0972 63.2009C34.1033 62.2073 32.9982 60.992 32.2252 59.8873C29.9058 56.7939 27.8617 53.3698 26.0391 49.8349C25.1556 48.1231 24.382 46.2451 23.6642 44.533C23.3325 43.8695 23.3325 42.8759 22.7804 42.5447C21.9518 43.7597 20.7369 44.8092 20.1293 46.3003C19.0804 48.6752 18.9696 51.6025 18.5829 54.64C18.362 54.6959 18.4721 54.64 18.3617 54.7511C16.5947 54.3086 15.9871 52.4863 15.3239 50.9397C13.6667 47.0184 13.3906 40.7219 14.8271 36.193C15.2137 35.033 16.8709 31.3879 16.208 30.2832C15.8766 29.2336 14.7715 28.626 14.1642 27.7978C13.4464 26.7482 12.6728 25.4232 12.176 24.2628C10.8502 21.1698 10.1874 17.7454 8.75151 14.6524C8.08865 13.2162 6.92928 11.7254 5.98992 10.3997C4.94071 8.90855 3.78071 7.85871 2.95214 6.0914C2.67627 5.4841 2.28928 4.48982 2.73119 3.82696C2.84166 3.38505 3.0623 3.21966 3.50452 3.10918C4.22262 2.50124 6.26643 3.27458 6.98389 3.60601C9.0277 4.43394 10.7398 5.20791 12.4521 6.36759C13.2252 6.91997 14.0537 7.9695 15.0477 8.24569H16.2077C17.9753 8.63204 19.9633 8.35616 21.6204 8.85299C24.548 9.79172 27.1988 11.1727 29.574 12.6641C36.8096 17.2482 42.774 23.7657 46.8064 31.5533C47.4693 32.8232 47.7452 33.9838 48.3528 35.3089C49.5131 38.0155 50.949 40.7771 52.1083 43.4282C53.2683 46.0238 54.3728 48.6752 56.0299 50.8295C56.8585 51.9889 60.1721 52.5968 61.6636 53.2044C62.7683 53.7012 64.4807 54.1435 65.4747 54.7508C67.3525 55.9101 69.2302 57.2365 70.9979 58.5063C71.8817 59.1692 74.6429 60.5501 74.809 61.6546Z" fill="#00546B"/>
<path d="M18.4718 13.6578C17.5331 13.6578 16.8706 13.7689 16.2077 13.9343V14.0448H16.3182C16.7604 14.9286 17.5331 15.5363 18.0852 16.3093C18.5274 17.1928 18.9137 18.0769 19.356 18.9607C19.4109 18.9051 19.4661 18.8502 19.4661 18.8502C20.2398 18.2975 20.6261 17.414 20.6261 16.0883C20.2947 15.702 20.2394 15.3153 19.9633 14.9286C19.6321 14.3759 18.9137 14.1001 18.4718 13.6578Z" fill="#00546B"/>
</g>
<defs>
<clipPath id="clip0_4_13">
<rect width="81.27" height="80" fill="white"/>
</clipPath>
</defs>
</svg>
