<svg width="80" height="80" viewBox="0 0 80 80" fill="none" xmlns="http://www.w3.org/2000/svg">
<path d="M58.6306 57.57C59.1213 53.4869 58.9744 52.8875 62.0156 53.5494L62.7875 53.6169C65.1263 53.7232 68.1856 53.2407 69.9831 52.4057C73.8525 50.61 76.1463 47.6132 72.3319 48.4C63.6294 50.1957 63.0313 47.2488 63.0313 47.2488C72.2206 33.6144 76.0619 16.3063 72.7456 12.0694C63.7019 0.513796 48.0475 5.97817 47.7856 6.11942L47.7019 6.13505C45.9825 5.77817 44.0581 5.56505 41.8962 5.53005C37.9581 5.46505 34.97 6.56255 32.7031 8.2813C32.7031 8.2813 4.77625 -3.22433 6.07562 22.7507C6.35187 28.2763 13.9956 64.5619 23.1131 53.6019C26.4456 49.5944 29.6656 46.2057 29.6656 46.2057C31.2644 47.2675 33.1794 47.81 35.1869 47.615L35.3425 47.4825C35.2937 47.98 35.315 48.4669 35.4044 49.0432C33.0562 51.6675 33.7462 52.1282 29.0506 53.0944C24.2994 54.0732 27.0906 55.8163 28.9125 56.2719C31.1219 56.8244 36.2325 57.6069 39.6863 52.7732L39.5487 53.3244C40.47 54.0619 40.4081 58.6225 40.5381 61.8807C40.6687 65.1394 40.8869 68.18 41.5513 69.9732C42.2156 71.7663 42.9994 76.3832 49.1706 75.0607C54.3281 73.9582 58.2712 72.3675 58.6306 57.57Z" fill="black"/>
<path d="M47.1612 78.285C44.4319 78.285 42.6544 77.2294 41.575 76.21C39.9456 74.6725 39.2994 72.6919 38.9131 71.5088L38.7462 71.015C37.9687 68.9163 37.705 65.8944 37.5487 62.0031C37.525 61.4188 37.5087 60.8169 37.4906 60.1788C37.4775 59.7119 37.4613 59.1263 37.4375 58.5138C36.4542 58.9826 35.4104 59.3124 34.3363 59.4938C32.4119 59.8225 30.3431 59.7163 28.1863 59.1769C26.6644 58.7963 25.0831 58.0075 24.1819 56.7894C21.555 59.09 19.0494 58.7781 17.6844 58.3225C15.2762 57.5194 13.1213 55.2625 11.0956 51.4244C9.6525 48.69 8.25688 45.1275 6.94688 40.835C4.66563 33.36 3.21625 25.4869 3.0875 22.9019C2.6825 14.8113 4.86062 9.025 9.56 5.70563C16.9731 0.46938 28.205 3.54876 32.3 4.94688C35.0512 3.28876 38.2881 2.48188 41.9456 2.54001C43.91 2.57188 45.7806 2.74438 47.5181 3.05438C49.3306 2.48438 52.9106 1.66626 57.0087 1.71751C64.5594 1.80751 70.8163 4.75001 75.1019 10.2269C78.1606 14.1344 76.6481 22.34 75.475 26.8838C73.8238 33.275 70.9306 40.0725 67.3769 45.99C68.3419 45.9969 69.74 45.8813 71.7275 45.4706C75.6487 44.6613 76.7956 46.7638 77.1069 47.705C78.3538 51.4813 72.9338 54.335 71.2431 55.12C69.0769 56.1256 65.545 56.7381 62.6525 56.6056L62.5263 56.5975L61.7662 56.5306L61.6913 57.1644L61.6187 57.7838C61.4244 65.2831 60.3531 70.0325 58.1488 73.1706C55.8381 76.4606 52.6269 77.3825 49.7981 77.9888C48.8331 78.195 47.9563 78.285 47.1612 78.285ZM41.4175 50.9906C43.1794 52.4006 43.3337 55.0538 43.4719 60.0119C43.4894 60.6306 43.5056 61.2163 43.5275 61.7631C43.5937 63.4194 43.7494 67.2975 44.3569 68.9363C44.4425 69.1681 44.5194 69.4031 44.6006 69.6525C45.2775 71.725 45.6169 72.7644 48.5437 72.1388C51.0006 71.6119 52.2638 71.1394 53.2525 69.7319C54.6894 67.6856 55.4931 63.5694 55.6406 57.4975L58.63 57.57L55.6612 57.2138L55.7487 56.4725C56.0331 54.0288 56.2381 52.2638 57.8713 51.0963C59.1819 50.16 60.675 50.2506 61.8644 50.465C60.5575 49.4775 60.1963 48.3194 60.1 47.8444L59.8506 46.6163L60.5513 45.5769C64.5869 39.5894 67.9144 32.2306 69.6819 25.3869C71.4981 18.355 70.9444 14.6206 70.3906 13.9144C63.06 4.54751 50.3481 8.41501 49.0206 8.85376L48.7962 8.97501L47.6713 9.18438L47.095 9.06501C45.5062 8.735 43.7413 8.55251 41.8494 8.52188C38.8769 8.47188 36.4788 9.17438 34.5125 10.6663L33.1481 11.7006L31.565 11.0488C28.1825 9.66563 18.2475 6.88501 13.005 10.5981C10.095 12.6594 8.76938 16.6981 9.06437 22.6025C9.16188 24.5519 10.4862 31.9313 12.6713 39.0881C15.6906 48.9788 18.4344 52.2644 19.58 52.6463C19.78 52.7138 20.2987 52.3106 20.815 51.6906C22.9676 49.1103 25.1965 46.5946 27.4988 44.1469L29.23 42.325L31.3231 43.7156C32.1669 44.2763 33.0975 44.5944 34.0531 44.6544L39.045 40.3969L38.3219 47.7769C38.3056 47.9425 38.2975 48.1681 38.3625 48.5869L38.58 49.9856L37.6362 51.0406L37.5275 51.1631L40.27 52.4288L41.4175 50.9906Z" fill="black"/>
<path d="M72.3319 48.4C63.6287 50.1956 63.0306 47.2488 63.0306 47.2488C72.22 33.6138 76.0612 16.305 72.7462 12.0694C63.7025 0.514396 48.0469 5.97877 47.7856 6.12065L47.7012 6.13565C45.9819 5.77877 44.0575 5.56627 41.8944 5.53127C37.9562 5.4669 34.9694 6.56377 32.7025 8.28252C32.7025 8.28252 4.775 -3.22248 6.07375 22.7519C6.35 28.2781 13.9937 64.5638 23.1112 53.6038C26.4437 49.5963 29.6631 46.2075 29.6631 46.2075C31.2625 47.2694 33.1769 47.8119 35.1838 47.6169L35.34 47.4844C35.2912 47.9819 35.3138 48.4688 35.4025 49.045C33.0538 51.6694 33.7438 52.13 29.0481 53.0963C24.2969 54.075 27.0881 55.8181 28.9106 56.2738C31.1194 56.8263 36.2306 57.6088 39.6838 52.775L39.5456 53.3263C40.4662 54.0638 41.1125 58.1213 41.0044 61.7994C40.8963 65.4775 40.8231 68.0031 41.5487 69.9756C42.2737 71.9482 42.9963 76.3856 49.1687 75.0631C54.3262 73.9581 56.9987 71.0938 57.3713 66.3163C57.635 62.9194 58.2319 63.4219 58.27 60.385L58.7494 58.9475C59.3019 54.3431 58.8369 52.8582 62.015 53.5488L62.7869 53.6163C65.1256 53.7225 68.1862 53.24 69.9831 52.405C73.8519 50.6106 76.1463 47.6131 72.3319 48.4Z" fill="#336791"/>
<path d="M47.4731 76.4419C42.3281 76.4419 40.6981 72.3675 40.0312 70.7013C39.055 68.2594 38.8444 58.7831 39.0619 51.0119C39.0651 50.8808 39.0942 50.7517 39.1476 50.632C39.2009 50.5122 39.2775 50.4042 39.3727 50.3142C39.468 50.2241 39.5802 50.1538 39.7027 50.1073C39.8253 50.0608 39.9558 50.039 40.0869 50.0431C40.2178 50.0467 40.3467 50.076 40.4662 50.1294C40.5858 50.1829 40.6936 50.2593 40.7836 50.3545C40.8736 50.4496 40.9439 50.5616 40.9906 50.6839C41.0373 50.8063 41.0594 50.9366 41.0556 51.0675C40.805 60.0306 41.1606 68.1531 41.8831 69.9606C43.0106 72.7788 44.7206 75.2438 49.555 74.2081C54.1444 73.2238 55.8631 71.4838 56.6287 67.0456C57.2163 63.64 58.3781 53.9513 58.5213 52.0394C58.5308 51.9087 58.5661 51.7812 58.625 51.6642C58.6839 51.5472 58.7654 51.443 58.8647 51.3576C58.964 51.2721 59.0791 51.2071 59.2036 51.1662C59.3281 51.1253 59.4594 51.1094 59.59 51.1194C59.8536 51.1394 60.0986 51.2631 60.271 51.4635C60.4435 51.6638 60.5295 51.9245 60.51 52.1881C60.3606 54.1788 59.2044 63.8488 58.5944 67.385C57.6906 72.6269 55.3537 75.0044 49.9731 76.1581C49.0588 76.3538 48.2281 76.4413 47.4731 76.4419ZM19.5756 56.5413C19.1259 56.5398 18.6794 56.466 18.2531 56.3225C14.9112 55.2075 11.7281 49.765 8.79187 40.1444C6.55687 32.8213 5.14062 25.1775 5.01625 22.6931C4.64812 15.3281 6.54437 10.1175 10.6537 7.20687C18.7831 1.44687 32.4587 6.93187 33.0369 7.16812C33.2818 7.26816 33.4769 7.46139 33.5794 7.7053C33.6818 7.94922 33.6832 8.22384 33.5831 8.46875C33.4831 8.71366 33.2899 8.9088 33.0459 9.01124C32.802 9.11368 32.5274 9.11504 32.2825 9.015C32.1506 8.96125 19.0369 3.7075 11.8025 8.83687C8.28875 11.3281 6.67562 15.9569 7.0075 22.5938C7.11187 24.6869 8.435 32.1469 10.6987 39.5619C13.32 48.1506 16.3031 53.57 18.8837 54.4306C19.2887 54.5656 20.5212 54.9763 22.2831 52.8575C24.3377 50.3898 26.4694 47.9874 28.675 45.6538C28.8595 45.4697 29.1088 45.3652 29.3695 45.3625C29.6301 45.3599 29.8814 45.4595 30.0696 45.6398C30.2578 45.8202 30.3679 46.067 30.3764 46.3275C30.3849 46.5881 30.2911 46.8415 30.115 47.0338C30.085 47.065 27.0856 50.2006 23.8169 54.1331C22.2687 55.995 20.785 56.5413 19.5756 56.5413ZM62.9688 48.1381C62.788 48.1379 62.6106 48.0885 62.4557 47.9953C62.3008 47.9021 62.1742 47.7685 62.0893 47.6088C62.0044 47.4492 61.9646 47.2695 61.9739 47.0889C61.9833 46.9084 62.0416 46.7338 62.1425 46.5838C71.4319 32.7994 74.6925 16.1438 71.9 12.575C68.385 8.08375 63.4219 5.73812 57.1475 5.6025C52.5019 5.5025 48.8094 6.68875 48.2056 6.89562L48.0537 6.9575C47.4469 7.14812 46.9813 6.81562 46.8056 6.42687C46.7055 6.20414 46.6903 5.95247 46.763 5.71932C46.8356 5.48618 46.9911 5.28767 47.2 5.16125C47.2287 5.14437 47.32 5.10562 47.4681 5.05125C48.4937 4.67562 52.2425 3.55062 56.8856 3.60375C63.8281 3.6775 69.5631 6.35437 73.4694 11.3462C75.3175 13.7081 75.3219 19.1494 73.4812 26.2756C71.605 33.5413 68.0744 41.3494 63.7956 47.6988C63.6044 47.9844 63.2894 48.1381 62.9688 48.1381ZM63.4437 54.5194C61.8575 54.5194 60.4356 54.2956 59.5844 53.7856C58.7094 53.2613 58.5425 52.5488 58.5206 52.1706C58.2819 47.9769 60.5956 47.2469 61.7756 46.9138C61.6113 46.665 61.3775 46.3725 61.1356 46.0706C60.4475 45.2106 59.505 44.0331 58.7787 42.2719C58.665 41.9969 58.3088 41.3575 57.8963 40.6169C55.6594 36.6056 51.005 28.2588 53.995 23.9844C55.3787 22.0063 58.1344 21.2275 62.1944 21.6619C61 18.0231 55.3125 6.64062 41.8169 6.41937C37.7581 6.35187 34.4294 7.6 31.9281 10.1256C26.3281 15.7812 26.5306 26.0144 26.5337 26.1169C26.5372 26.2478 26.5148 26.3781 26.4679 26.5004C26.421 26.6226 26.3505 26.7345 26.2603 26.8295C26.1702 26.9245 26.0622 27.0008 25.9426 27.0541C25.823 27.1074 25.694 27.1366 25.5631 27.14C25.4322 27.1434 25.3019 27.1211 25.1796 27.0742C25.0574 27.0273 24.9455 26.9567 24.8505 26.8666C24.7555 26.7765 24.6792 26.6685 24.6259 26.5489C24.5726 26.4292 24.5434 26.3003 24.54 26.1694C24.5275 25.715 24.3188 14.9763 30.5112 8.72187C33.4094 5.795 37.2244 4.35 41.85 4.42562C50.4837 4.5675 56.0412 8.95687 59.1825 12.6137C62.6069 16.5994 64.2856 20.9956 64.4238 22.4631C64.5269 23.5544 63.7437 23.7725 63.5856 23.805L63.2256 23.8131C59.2412 23.175 56.685 23.6181 55.6281 25.1281C53.3537 28.3788 57.7569 36.2744 59.6369 39.6463C60.1169 40.5063 60.4631 41.1281 60.6219 41.5119C61.2394 43.0094 62.045 44.0156 62.6919 44.8244C63.2612 45.5356 63.7544 46.1525 63.9306 46.8763C64.0125 47.02 65.1744 48.7388 72.0687 47.3156C73.7969 46.9594 74.8331 47.2638 75.15 48.2219C75.7731 50.1063 72.2769 52.3044 70.3412 53.2031C68.6069 54.0094 65.8387 54.5194 63.4437 54.5194ZM60.5088 52.0063C60.7275 52.2269 61.8219 52.6075 64.0881 52.51C66.1031 52.4238 68.2281 51.9856 69.5031 51.3938C71.1338 50.6363 72.2225 49.7894 72.7862 49.2113L72.4737 49.2688C68.0656 50.1788 64.9475 50.0575 63.2062 48.9081C63.0891 48.831 62.9765 48.7473 62.8687 48.6575C62.68 48.7319 62.5056 48.7806 62.3812 48.8156C61.3937 49.0925 60.3725 49.3794 60.5088 52.0063ZM32.0325 57.5781C30.9375 57.5781 29.785 57.4288 28.6081 57.1344C27.3887 56.8294 25.3331 55.9113 25.3644 54.4031C25.4 52.7113 27.8606 52.2038 28.7869 52.0131C32.1331 51.3238 32.3512 51.0475 33.3969 49.7194C33.7019 49.3325 34.0812 48.8506 34.5988 48.2731C35.3669 47.4131 36.2062 46.9775 37.0938 46.9775C37.7119 46.9775 38.2188 47.1869 38.5537 47.3263C39.6213 47.7688 40.5119 48.8388 40.8781 50.1181C41.2087 51.2725 41.0506 52.3838 40.4344 53.2469C38.4112 56.08 35.5056 57.5781 32.0325 57.5781ZM27.5187 54.4888C27.8194 54.7213 28.4219 55.0319 29.0925 55.1994C30.1119 55.4544 31.1006 55.5838 32.0331 55.5838C34.8744 55.5838 37.1556 54.4075 38.8125 52.0875C39.1581 51.6038 39.0544 50.9894 38.9619 50.6663C38.7681 49.9894 38.2869 49.3738 37.7912 49.1681C37.5225 49.0569 37.2994 48.9719 37.0944 48.9719C36.9844 48.9719 36.6494 48.9719 36.0856 49.6025C35.6965 50.04 35.3226 50.4907 34.9644 50.9538C33.6619 52.6075 33.065 53.1688 29.19 53.9669C28.2444 54.1606 27.7594 54.3581 27.5187 54.4888ZM35.1869 49.8888C34.9488 49.8884 34.7187 49.8029 34.5382 49.6477C34.3577 49.4925 34.2386 49.2778 34.2025 49.0425C34.1775 48.877 34.1608 48.7103 34.1525 48.5431C31.6125 48.4956 29.1619 47.4056 27.3012 45.4644C24.9487 43.01 23.8781 39.6094 24.3644 36.135C24.8925 32.3619 24.695 29.0313 24.5887 27.2419C24.5594 26.7444 24.5381 26.385 24.5394 26.1363C24.5413 25.8206 24.5475 24.9838 27.345 23.5656C28.34 23.0613 30.335 22.1813 32.5144 21.9556C36.125 21.5825 38.505 23.1906 39.2175 26.4844C41.1406 35.3769 39.37 39.31 38.0769 42.1825C37.8363 42.7175 37.6087 43.2225 37.4269 43.7119L37.2663 44.1431C36.5831 45.975 35.9925 47.5575 36.1737 48.7394C36.1936 48.8688 36.1879 49.0009 36.1567 49.1281C36.1255 49.2553 36.0696 49.3751 35.9921 49.4807C35.9146 49.5863 35.8171 49.6755 35.7051 49.7434C35.5931 49.8113 35.4688 49.8564 35.3394 49.8763L35.1869 49.8888ZM26.54 26.4125L26.5788 27.1244C26.6887 28.9831 26.8937 32.4419 26.3387 36.4119C25.9381 39.2775 26.8131 42.0744 28.7406 44.0844C30.2638 45.6731 32.2681 46.55 34.3281 46.55H34.3706C34.6012 45.5781 34.9844 44.5519 35.3969 43.4463L35.5562 43.0175C35.7619 42.465 36.0025 41.93 36.2575 41.3638C37.5019 38.5988 39.0512 35.1569 37.2669 26.9062C36.9137 25.2719 36.0569 24.3263 34.6487 24.0144C31.7562 23.3756 27.4456 25.5513 26.54 26.4125ZM32.5588 25.9894C32.5088 26.3419 33.2044 27.2831 34.1119 27.4088C35.0175 27.5356 35.7925 26.7994 35.8419 26.4469C35.8912 26.0944 35.1962 25.7056 34.2887 25.5794C33.3812 25.4531 32.6069 25.6369 32.5588 25.9894ZM34.32 27.7556L34.0656 27.7381C33.5031 27.66 32.9344 27.3056 32.545 26.7894C32.4081 26.6081 32.185 26.2569 32.2294 25.9431C32.2925 25.4831 32.8537 25.2075 33.7294 25.2075C33.925 25.2075 34.1287 25.2219 34.3337 25.2506C34.8125 25.3169 35.2569 25.455 35.585 25.6381C36.1537 25.9556 36.1956 26.31 36.17 26.4931C36.1 27.0013 35.2919 27.7556 34.32 27.7556ZM32.8894 26.0481C32.9175 26.2656 33.4562 26.9831 34.1575 27.08L34.3206 27.0913C34.9681 27.0913 35.4519 26.5819 35.5087 26.415C35.4487 26.3013 35.0325 26.0187 34.2431 25.9088C34.0731 25.8847 33.9017 25.8724 33.73 25.8719C33.2225 25.8719 32.9531 25.9862 32.8894 26.0481ZM60.1425 25.27C60.1919 25.6225 59.4969 26.5637 58.59 26.69C57.6838 26.8162 56.9081 26.0806 56.8581 25.7281C56.8106 25.3756 57.5056 24.9863 58.4119 24.8606C59.3181 24.7338 60.0925 24.9181 60.1425 25.27ZM58.3806 26.87C57.5081 26.87 56.755 26.1913 56.6931 25.7506C56.6213 25.2219 57.4919 24.82 58.3881 24.6956C58.5856 24.6681 58.7812 24.6544 58.9694 24.6544C59.7431 24.6544 60.2556 24.8813 60.3069 25.2475C60.34 25.4844 60.1581 25.85 59.845 26.18C59.6381 26.3969 59.2037 26.7725 58.6119 26.8544L58.3806 26.87ZM58.97 24.9869C58.7967 24.9869 58.6183 24.9996 58.435 25.025C57.5344 25.1506 56.9969 25.5119 57.0231 25.7056C57.0531 25.9188 57.6281 26.5381 58.3813 26.5381L58.5669 26.525C59.0588 26.4569 59.4281 26.1356 59.6044 25.9506C59.8812 25.66 59.9912 25.3863 59.9781 25.2931C59.9606 25.1694 59.6281 24.9869 58.97 24.9869ZM61.4481 45.5138C61.2674 45.5139 61.0901 45.4648 60.9352 45.3719C60.7802 45.279 60.6535 45.1457 60.5685 44.9863C60.4834 44.8268 60.4434 44.6473 60.4526 44.4668C60.4618 44.2864 60.5199 44.1118 60.6206 43.9619C62.7444 40.79 62.3556 37.5556 61.98 34.4275C61.8194 33.095 61.6544 31.7169 61.6969 30.3944C61.7406 29.0338 61.9137 27.9113 62.0806 26.8256C62.2788 25.5394 62.4662 24.3244 62.3887 22.8819C62.3817 22.7511 62.4005 22.6203 62.444 22.4968C62.4875 22.3733 62.5549 22.2596 62.6424 22.1621C62.7298 22.0647 62.8356 21.9854 62.9537 21.9289C63.0718 21.8723 63.1999 21.8396 63.3306 21.8325C63.4614 21.8254 63.5922 21.8442 63.7157 21.8877C63.8392 21.9312 63.9529 21.9986 64.0504 22.0861C64.2472 22.2627 64.3657 22.5103 64.38 22.7744C64.4688 24.4231 64.2569 25.7981 64.0519 27.1287C63.8937 28.1556 63.73 29.2175 63.6906 30.4581C63.6525 31.6294 63.8019 32.8731 63.96 34.1894C64.36 37.5156 64.8131 41.2856 62.2781 45.0713C62.1867 45.2074 62.0631 45.319 61.9184 45.3962C61.7737 45.4733 61.6122 45.5137 61.4481 45.5138Z" fill="white"/>
</svg>
