<svg width="81" height="80" viewBox="0 0 81 80" fill="none" xmlns="http://www.w3.org/2000/svg">
<g clip-path="url(#clip0_3_2)">
<path d="M39.8199 0.022583C19.4805 0.022583 20.7504 8.84298 20.7504 8.84298L20.773 17.9812H40.1826V20.7247H13.0638C13.0638 20.7247 0.0486298 19.2486 0.0486298 39.771C0.0486298 60.294 11.4086 59.5661 11.4086 59.5661H18.1882V50.0427C18.1882 50.0427 17.8227 38.6827 29.3669 38.6827H48.6177C48.6177 38.6827 59.4334 38.8574 59.4334 28.2296V10.6573C59.4334 10.6573 61.0761 0.022583 39.8199 0.022583ZM29.1175 6.16784C29.5762 6.16743 30.0304 6.25746 30.4542 6.43279C30.878 6.60812 31.2631 6.86531 31.5875 7.18963C31.9118 7.51395 32.169 7.89905 32.3443 8.32287C32.5196 8.7467 32.6097 9.20094 32.6093 9.6596C32.6097 10.1183 32.5196 10.5725 32.3443 10.9963C32.169 11.4202 31.9118 11.8053 31.5875 12.1296C31.2631 12.4539 30.878 12.7111 30.4542 12.8864C30.0304 13.0617 29.5762 13.1518 29.1175 13.1514C28.6588 13.1518 28.2046 13.0617 27.7808 12.8864C27.3569 12.7111 26.9718 12.4539 26.6475 12.1296C26.3232 11.8053 26.066 11.4202 25.8907 10.9963C25.7154 10.5725 25.6253 10.1183 25.6257 9.6596C25.6253 9.20094 25.7154 8.7467 25.8907 8.32287C26.066 7.89905 26.3232 7.51395 26.6475 7.18963C26.9718 6.86531 27.3569 6.60812 27.7808 6.43279C28.2046 6.25746 28.6588 6.16743 29.1175 6.16784Z" fill="url(#paint0_linear_3_2)"/>
<path d="M40.3975 79.7258C60.7369 79.7258 59.467 70.9054 59.467 70.9054L59.4444 61.7675H40.0345V59.024H67.1533C67.1533 59.024 80.1685 60.5001 80.1685 39.9771C80.1685 19.4544 68.8085 20.1823 68.8085 20.1823H62.0289V29.7054C62.0289 29.7054 62.3943 41.0654 50.8502 41.0654H31.5994C31.5994 41.0654 20.7837 40.8907 20.7837 51.5187V69.0914C20.7837 69.0914 19.1416 79.7258 40.3975 79.7258ZM51.0996 73.5812C50.6409 73.5816 50.1867 73.4916 49.7629 73.3162C49.339 73.1409 48.954 72.8837 48.6296 72.5594C48.3053 72.2351 48.0481 71.85 47.8728 71.4261C47.6975 71.0023 47.6074 70.5481 47.6078 70.0894C47.6074 69.6307 47.6974 69.1764 47.8727 68.7526C48.048 68.3287 48.3052 67.9436 48.6295 67.6192C48.9538 67.2949 49.339 67.0377 49.7628 66.8623C50.1867 66.687 50.6409 66.5969 51.0996 66.5973C51.5583 66.5969 52.0125 66.687 52.4363 66.8623C52.8602 67.0376 53.2452 67.2948 53.5696 67.6191C53.8939 67.9434 54.1511 68.3285 54.3264 68.7524C54.5017 69.1762 54.5918 69.6304 54.5914 70.0891C54.5918 70.5478 54.5017 71.002 54.3264 71.4258C54.1511 71.8496 53.8939 72.2347 53.5696 72.5591C53.2452 72.8834 52.8602 73.1406 52.4363 73.3159C52.0125 73.4912 51.5583 73.5816 51.0996 73.5812Z" fill="url(#paint1_linear_3_2)"/>
</g>
<defs>
<linearGradient id="paint0_linear_3_2" x1="769.998" y1="716.905" x2="4740.49" y2="4647.79" gradientUnits="userSpaceOnUse">
<stop stop-color="#387EB8"/>
<stop offset="1" stop-color="#366994"/>
</linearGradient>
<linearGradient id="paint1_linear_3_2" x1="1157.23" y1="1245.59" x2="5421.09" y2="5276.35" gradientUnits="userSpaceOnUse">
<stop stop-color="#FFE052"/>
<stop offset="1" stop-color="#FFC331"/>
</linearGradient>
<clipPath id="clip0_3_2">
<rect width="80.32" height="80" fill="white"/>
</clipPath>
</defs>
</svg>
