<svg width="90" height="80" viewBox="0 0 90 80" fill="none" xmlns="http://www.w3.org/2000/svg">
<g clip-path="url(#clip0_3_7)">
<path d="M73.8564 25.9031C72.9004 25.5752 71.9364 25.2714 70.9652 24.9919C71.1283 24.3252 71.2785 23.6666 71.4118 23.0196C73.6006 12.3947 72.1697 3.83503 67.2824 1.01678C62.5964 -1.68497 54.9329 1.13222 47.1932 7.86801C46.4304 8.53301 45.6846 9.21721 44.9564 9.91994C44.4689 9.45267 43.9728 8.99446 43.4683 8.54555C35.3568 1.34345 27.2262 -1.69199 22.3441 1.13432C17.6624 3.8445 16.276 11.8912 18.2466 21.9606C18.4426 22.9579 18.664 23.95 18.9104 24.9361C17.7596 25.2631 16.649 25.6112 15.5862 25.9817C6.07605 29.2975 0.00271606 34.4936 0.00271606 39.8834C0.00271606 45.4501 6.52272 51.0336 16.428 54.4192C17.231 54.6925 18.0408 54.9458 18.8564 55.1789C18.5916 56.2409 18.3564 57.3101 18.1511 58.3852C16.2725 68.2799 17.7396 76.1364 22.4087 78.8294C27.2311 81.6105 35.3252 78.7522 43.2062 71.8627C43.8452 71.3026 44.4702 70.7266 45.0806 70.1354C45.8692 70.8963 46.6789 71.635 47.5087 72.3508C55.1431 78.9199 62.6827 81.5726 67.3473 78.8722C72.1652 76.0831 73.7311 67.6431 71.6982 57.3747C71.538 56.5702 71.3584 55.7697 71.1596 54.974C71.728 54.8056 72.2859 54.6322 72.8297 54.4519C83.1273 51.0403 89.8273 45.5245 89.8273 39.8834C89.8273 34.474 83.5578 29.2427 73.8564 25.9031ZM71.6231 50.8098C71.1314 50.9721 70.6284 51.1294 70.1143 51.2817C68.9774 47.6827 67.4434 43.8561 65.5659 39.902C67.3575 36.0424 68.8325 32.2645 69.9375 28.6891C70.8564 28.955 71.748 29.2354 72.6076 29.5312C80.9199 32.3929 85.9901 36.6234 85.9901 39.8834C85.9901 43.3557 80.5143 47.8634 71.6231 50.8098ZM67.9339 58.1199C68.8329 62.6603 68.961 66.7656 68.3655 69.975C67.8308 72.8589 66.755 74.7813 65.4245 75.5515C62.5939 77.1901 56.5403 75.0603 50.0115 69.442C49.2397 68.7765 48.4866 68.0897 47.7529 67.3824C50.2841 64.6143 52.8136 61.3964 55.2824 57.8224C59.6248 57.4371 63.7273 56.807 67.4476 55.947C67.6313 56.6866 67.7934 57.4109 67.9339 58.1199ZM30.6259 75.2684C27.8603 76.2449 25.6575 76.2729 24.3259 75.5052C21.4925 73.8712 20.3146 67.5628 21.9213 59.101C22.1123 58.1011 22.331 57.1067 22.5771 56.1189C26.2564 56.9329 30.329 57.5182 34.6817 57.8712C37.1673 61.3684 39.7697 64.5827 42.3925 67.3975C41.8351 67.9368 41.2645 68.4623 40.6813 68.9736C37.196 72.0199 33.7038 74.1813 30.6259 75.2684ZM17.6694 50.7884C13.2894 49.2912 9.67219 47.3456 7.19289 45.2224C4.96482 43.3147 3.84026 41.4203 3.84026 39.8834C3.84026 36.6126 8.7164 32.4406 16.8494 29.6052C17.8364 29.2613 18.8694 28.9368 19.9413 28.6322C21.0655 32.2884 22.5399 36.1112 24.3192 39.9768C22.5168 43.8996 21.0213 47.7835 19.8862 51.4827C19.1417 51.2694 18.4025 51.0379 17.6694 50.7884ZM22.0125 21.2234C20.3245 12.5964 21.4455 6.08871 24.2669 4.45538C27.2718 2.71573 33.9168 5.19608 40.9206 11.415C41.3773 11.8215 41.8267 12.2361 42.2683 12.6589C39.6585 15.4613 37.0799 18.6519 34.6164 22.1284C30.3918 22.5199 26.348 23.1487 22.6301 23.9912C22.401 23.0741 22.1951 22.151 22.0125 21.2234ZM60.7589 30.7915C59.8807 29.2747 58.9699 27.7769 58.0273 26.2992C60.8932 26.6617 63.6392 27.1427 66.2178 27.7308C65.4438 30.2122 64.4789 32.8063 63.3431 35.4659C62.5129 33.8907 61.6513 32.3323 60.7589 30.7915ZM44.9582 15.4017C46.728 17.3192 48.5006 19.4599 50.2441 21.7827C46.7073 21.6157 43.1645 21.615 39.6276 21.7806C41.3729 19.4792 43.1606 17.3413 44.9582 15.4017ZM29.056 30.8175C28.1747 32.3458 27.3293 33.8946 26.5203 35.4624C25.4031 32.8122 24.4469 30.2063 23.6662 27.6898C26.229 27.1164 28.962 26.6477 31.8097 26.2919C30.8566 27.7786 29.9385 29.2877 29.056 30.8175ZM31.8915 53.7477C28.9494 53.4192 26.1753 52.9747 23.6132 52.4168C24.4062 49.8554 25.3834 47.194 26.5248 44.487C27.337 46.056 28.186 47.6056 29.0711 49.1347C29.9813 50.7066 30.9238 52.2463 31.8915 53.7477ZM45.0641 64.6354C43.2452 62.6733 41.4311 60.5024 39.6596 58.1677C41.3796 58.235 43.1329 58.2694 44.915 58.2694C46.7459 58.2694 48.5557 58.2284 50.3371 58.1491C48.588 60.5259 46.822 62.6999 45.0641 64.6354ZM63.3792 44.3487C64.5799 47.0856 65.5918 49.7329 66.3953 52.2505C63.7911 52.8449 60.9792 53.3235 58.0164 53.6789C58.9658 52.1738 59.8852 50.65 60.7739 49.1084C61.6776 47.5414 62.5463 45.9544 63.3792 44.3487ZM57.4501 47.1912C56.0894 49.5547 54.6522 51.8735 53.141 54.1438C50.4033 54.3378 47.6595 54.4341 44.915 54.4326C42.1196 54.4326 39.4006 54.3456 36.7824 54.1757C35.2315 51.9108 33.767 49.588 32.3918 47.2122C31.023 44.8492 29.7449 42.4349 28.5596 39.9747C29.7419 37.5139 31.0165 35.0985 32.3806 32.7336L32.3803 32.734C33.7437 30.3684 35.1965 28.0555 36.7357 25.8003C39.4069 25.5982 42.1462 25.4929 44.9146 25.4929C47.6957 25.4929 50.4389 25.5992 53.1094 25.8027C54.633 28.0546 56.0766 30.3595 57.4375 32.7133C58.8059 35.073 60.0974 37.4767 61.3097 39.9203C60.1098 42.3889 58.8224 44.8141 57.4501 47.1912ZM65.3659 4.34064C68.3736 6.07538 69.5434 13.0708 67.6536 22.2445C67.5324 22.8302 67.3979 23.4256 67.2501 24.0305C63.5231 23.1701 59.4764 22.5305 55.2396 22.1329C52.7715 18.6182 50.2139 15.4227 47.6466 12.6564C48.3195 12.0079 49.0083 11.3761 49.7125 10.7617C56.3441 4.99082 62.542 2.71222 65.3659 4.34064ZM44.915 31.8624C49.3448 31.8624 52.9361 35.4536 52.9361 39.8834C52.9361 44.3133 49.3448 47.9045 44.915 47.9045C40.4852 47.9045 36.8939 44.3133 36.8939 39.8834C36.8939 35.4536 40.4852 31.8624 44.915 31.8624Z" fill="#00D8FF"/>
</g>
<defs>
<clipPath id="clip0_3_7">
<rect width="89.83" height="80" fill="white"/>
</clipPath>
</defs>
</svg>
