<svg width="80" height="80" viewBox="0 0 80 80" fill="none" xmlns="http://www.w3.org/2000/svg">
<g clip-path="url(#clip0_3_5)">
<path d="M72.7825 4.15189C71.6626 6.84008 70.2283 9.38616 68.5094 11.7369C60.9806 4.21251 50.7723 -0.0148739 40.1281 -0.0162354C18.115 -0.0162354 5.3888e-09 18.1138 5.3888e-09 40.1513C-8.90941e-05 45.5932 1.10471 50.9784 3.24746 55.9807C5.3902 60.983 8.52627 65.4981 12.4656 69.2525L13.9456 70.565C21.1787 76.6634 30.3335 80.0107 39.7944 80.0163C60.7238 80.0163 78.3175 63.6163 79.8075 42.7144C80.9019 32.4825 77.9006 19.5413 72.7825 4.15189ZM18.1669 69.4813C17.8447 69.8783 17.438 70.1984 16.9764 70.4183C16.5148 70.6382 16.01 70.7524 15.4988 70.7525C13.6125 70.7525 12.0694 69.2 12.0694 67.3138C12.0694 65.4275 13.6225 63.8756 15.4988 63.8756C16.28 63.8756 17.0519 64.1463 17.6562 64.6469C19.1256 65.8344 19.355 68.0119 18.1669 69.4813ZM72.6162 57.4575C62.7144 70.6588 41.5662 66.2094 28.0063 66.845C28.0063 66.845 25.5988 66.9913 23.1806 67.3869C23.1806 67.3869 24.0869 67.0013 25.265 66.5531C34.7812 63.24 39.2838 62.5938 45.0681 59.6244C55.96 54.0813 66.7269 41.9531 68.9681 29.335C64.82 41.4738 52.2494 51.9038 40.795 56.1444C32.9469 59.0413 18.7712 61.8544 18.7712 61.8544L18.1981 61.5519C8.54688 56.8531 8.25437 35.9413 25.7962 29.1894C33.4781 26.23 40.8263 27.8556 49.1231 25.8756C57.9825 23.7713 68.2281 17.1231 72.3969 8.45439C77.0662 22.3231 82.685 44.0369 72.6162 57.4575Z" fill="#77BC1F"/>
</g>
<defs>
<clipPath id="clip0_3_5">
<rect width="80" height="80" fill="white"/>
</clipPath>
</defs>
</svg>
